<svg width="121" height="20" viewBox="0 0 121 20" fill="none" xmlns="http://www.w3.org/2000/svg">
<g clip-path="url(#clip0_260_848)">
<rect x="0.333313" width="20" height="20" rx="3" fill="#FFC93F"/>
<path d="M9.03662 5.81663C9.40345 5.07346 10.4632 5.07346 10.83 5.81663L11.6785 7.53549C11.824 7.83034 12.1052 8.0348 12.4306 8.08235L14.3295 8.35992C15.1495 8.47976 15.4762 9.4876 14.8826 10.0658L13.5101 11.4026C13.2742 11.6323 13.1666 11.9635 13.2222 12.288L13.546 14.1754C13.6861 14.9924 12.8285 15.6154 12.0949 15.2295L10.3988 14.3376C10.1074 14.1843 9.75926 14.1843 9.46787 14.3376L7.77176 15.2295C7.03813 15.6154 6.18058 14.9924 6.3207 14.1754L6.64441 12.288C6.70007 11.9635 6.59241 11.6323 6.35654 11.4026L4.984 10.0658C4.39041 9.4876 4.71719 8.47976 5.53711 8.35992L7.43609 8.08235C7.76145 8.0348 8.04263 7.83034 8.18817 7.53549L9.03662 5.81663Z" fill="white"/>
<rect x="25.3333" width="20" height="20" rx="3" fill="#FFC93F"/>
<path d="M34.0366 5.81663C34.4035 5.07346 35.4632 5.07346 35.83 5.81663L36.6785 7.53549C36.824 7.83034 37.1052 8.0348 37.4306 8.08235L39.3295 8.35992C40.1495 8.47976 40.4762 9.4876 39.8826 10.0658L38.5101 11.4026C38.2742 11.6323 38.1666 11.9635 38.2222 12.288L38.546 14.1754C38.6861 14.9924 37.8285 15.6154 37.0949 15.2295L35.3988 14.3376C35.1074 14.1843 34.7593 14.1843 34.4679 14.3376L32.7718 15.2295C32.0381 15.6154 31.1806 14.9924 31.3207 14.1754L31.6444 12.288C31.7001 11.9635 31.5924 11.6323 31.3565 11.4026L29.984 10.0658C29.3904 9.4876 29.7172 8.47976 30.5371 8.35992L32.4361 8.08235C32.7614 8.0348 33.0426 7.83034 33.1882 7.53549L34.0366 5.81663Z" fill="white"/>
<rect x="50.3333" width="20" height="20" rx="3" fill="#FFC93F"/>
<path d="M59.0366 5.81663C59.4035 5.07346 60.4632 5.07346 60.83 5.81663L61.6785 7.53549C61.824 7.83034 62.1052 8.0348 62.4306 8.08235L64.3295 8.35992C65.1495 8.47976 65.4762 9.4876 64.8826 10.0658L63.5101 11.4026C63.2742 11.6323 63.1666 11.9635 63.2222 12.288L63.546 14.1754C63.6861 14.9924 62.8285 15.6154 62.0949 15.2295L60.3988 14.3376C60.1074 14.1843 59.7593 14.1843 59.4679 14.3376L57.7718 15.2295C57.0381 15.6154 56.1806 14.9924 56.3207 14.1754L56.6444 12.288C56.7001 11.9635 56.5924 11.6323 56.3565 11.4026L54.984 10.0658C54.3904 9.4876 54.7172 8.47976 55.5371 8.35992L57.4361 8.08235C57.7614 8.0348 58.0426 7.83034 58.1882 7.53549L59.0366 5.81663Z" fill="white"/>
<rect x="75.3333" width="20" height="20" rx="3" fill="#FFC93F"/>
<path d="M84.0366 5.81663C84.4035 5.07346 85.4632 5.07346 85.83 5.81663L86.6785 7.53549C86.824 7.83034 87.1052 8.0348 87.4306 8.08235L89.3295 8.35992C90.1495 8.47976 90.4762 9.4876 89.8826 10.0658L88.5101 11.4026C88.2742 11.6323 88.1666 11.9635 88.2222 12.288L88.546 14.1754C88.6861 14.9924 87.8285 15.6154 87.0949 15.2295L85.3988 14.3376C85.1074 14.1843 84.7593 14.1843 84.4679 14.3376L82.7718 15.2295C82.0381 15.6154 81.1806 14.9924 81.3207 14.1754L81.6444 12.288C81.7001 11.9635 81.5924 11.6323 81.3565 11.4026L79.984 10.0658C79.3904 9.4876 79.7172 8.47976 80.5371 8.35992L82.4361 8.08235C82.7614 8.0348 83.0426 7.83034 83.1882 7.53549L84.0366 5.81663Z" fill="white"/>
<rect x="100.333" width="20" height="20" rx="3" fill="#FFC93F"/>
<path d="M109.037 5.81663C109.403 5.07346 110.463 5.07346 110.83 5.81663L111.678 7.53549C111.824 7.83034 112.105 8.0348 112.431 8.08235L114.33 8.35992C115.149 8.47976 115.476 9.4876 114.883 10.0658L113.51 11.4026C113.274 11.6323 113.167 11.9635 113.222 12.288L113.546 14.1754C113.686 14.9924 112.829 15.6154 112.095 15.2295L110.399 14.3376C110.107 14.1843 109.759 14.1843 109.468 14.3376L107.772 15.2295C107.038 15.6154 106.181 14.9924 106.321 14.1754L106.644 12.288C106.7 11.9635 106.592 11.6323 106.357 11.4026L104.984 10.0658C104.39 9.4876 104.717 8.47976 105.537 8.35992L107.436 8.08235C107.761 8.0348 108.043 7.83034 108.188 7.53549L109.037 5.81663Z" fill="white"/>
</g>
<defs>
<clipPath id="clip0_260_848">
<rect width="120" height="20" fill="white" transform="translate(0.333313)"/>
</clipPath>
</defs>
</svg>
